<svg id="drummer" xmlns="http://www.w3.org/2000/svg" viewBox="0 0 188.3 188.9"><defs><style>.cls-1{fill:#6a8a82;}.cls-2{fill:#661642;}</style></defs><title>drummer</title><path id="drummer-2" data-name="drummer" class="cls-1" d="M68.3,182.9a76.3,76.3,0,0,0-3.9-39l-7.3-3.3v-3.7l-2.6-3.4-3.9-1.6-5-5.4,1.1-3.4A287.2,287.2,0,0,1,6.8,92.3s-5-1.6,3.1-9.6S25.8,62.3,49.8,49.8c0,0-1.3-12.8,9.4-13.3l4.4-3.1,5.7,2.3s3,6.3,0,12.3S53.2,60.5,53.2,60.5l-21.6,25,1.5,6.3L59,104.3a18.4,18.4,0,0,1,14,8.1s5.5,5.2,14.6.5,2.4-18,2.4-18-2.9.5-4.2-5.7a53.7,53.7,0,0,1-1.3-9.7l2.6.3L81.6,67.3l4.2-.8s0-8.9.3-9.7,4.4,2.4,4.4,2.4l1.9-6,3.7,2.1,3.3-2.6,4.4,3.1,1.1-3.7,5.2,5.3,2.1-2.4,3.6,7.8s2.9,1.3,3.4-.2,0,6,0,6l4.4.5L120,72.7l.5,5.3s2.1,3.1,3.1,1.3a29.6,29.6,0,0,1-2.8,9.1c-2.1,3.6-1.9,6-3.4,7s-4.7,3.4.8,14.4c0,0,.2,2.3,10.4,1.3s4.7.8,6,.5,6.3-3.5,6.3-3.5l5.4,1.2a18.1,18.1,0,0,1,14.9-8.7s-1-6.5,10.2-11.4V78.5l-7.6-12.3s-13.3-19.5-19.3-21.6l-5-9.2,3.7-9.6,4.7,3.6,12.5,5.3,1.8,4.9s5,5,5.3,11l19,18.5s5.5,14.6,6.8,15.1-1.6,8.1-4.7,11-20.6,26.3-30,28.7l-13.3,15.9-1.1,5.4-3.1,2.4,2.1,2.3-4.2,3.7s3.9,2.9,3.7,7-1.3,9.4-1.3,9.4-2.1,1.3.5,5.8a25.4,25.4,0,0,1,2.9,10.1l2.8,4.7-1.5,3.7-79.6-1.1S64.6,184.6,68.3,182.9Z" transform="translate(-5.3 -5.3)"/><path id="stick" class="cls-2" d="M94.7,22.7l-25.4,13s1.2,4.1,1.3,5S98.3,25.8,98.3,25.8,103.7,19.4,94.7,22.7Z" transform="translate(-5.3 -5.3)"/><path id="stick-2" data-name="stick" class="cls-2" d="M142.6,27.3,102.8,5.9S96.5,3.3,99.9,9l41.2,22.2Z" transform="translate(-5.3 -5.3)"/></svg>